<svg width="163" height="100" viewBox="0 0 163 100" fill="none" xmlns="http://www.w3.org/2000/svg">
<rect width="163" height="100" fill="#CF2E2E"/>
<path d="M60.5977 53.7642V52.7933H63.463H64.8809H68.5733V53.7642H60.5977ZM63.463 53.7642V32.7876H64.5855L64.8809 46.0855V53.7642H63.463ZM74.5107 32.9347V31.9638H82.5158V32.9347H79.5914H78.3803H74.5107ZM77.4646 53.8819L64.2606 34.7587L64.172 34.6705L63.1677 33.17L60.7159 32.9347V31.9638H67.2736L79.0302 49.057L78.4689 49.2629L78.3803 40.5251V31.9638H79.5914V53.8819H77.4646Z" fill="#F2F2F2"/>
<path d="M82.9295 53.8819C82.9685 52.2147 82.9881 50.4202 82.9881 48.7334C82.9881 47.0271 82.9881 45.3109 82.9881 43.5849V42.1727C82.9881 40.4663 82.9881 38.7697 82.9881 37.083C82.9881 35.3766 82.9685 33.6702 82.9295 31.9638H87.0905C87.0515 33.631 87.0222 35.3275 87.0026 37.0535C87.0026 38.7599 87.0026 40.4663 87.0026 42.1727V44.5263C87.0026 45.8404 87.0026 47.282 87.0026 48.8511C87.0222 50.4202 87.0515 52.1755 87.0905 53.8819H82.9295ZM77.4277 53.8819V52.7935H82.95H87.0692H89.5813V53.8819H83.5045H77.4277ZM80.1749 32.9347V31.9638H89.8158V32.9347H87.069H82.9295H80.1749ZM92.4238 53.7643V52.7935H94.814H97.7337H101.303V53.7643H92.4238ZM92.7461 32.9347V31.9638H100.277V32.9347H97.5926H96.012H92.7461ZM84.8928 48.1745L84.8342 46.2621H85.3616L86.0356 45.3795L96.8779 31.9638H98.4017L84.8928 48.1745ZM95.3248 53.7643L89.2883 42.2904L91.8963 39.2012L99.8375 53.7643H95.3248Z" fill="#F2F2F2"/>
<path d="M133 34.9521V65.5185L81 81.6533L29 65.5185V34.9521L81 18.8173L133 34.9521Z" stroke="#F2F2F2" stroke-width="4"/>
<path d="M49.161 65.2301C48.5797 65.2301 48.04 65.1519 47.5417 64.9954C47.0435 64.839 46.6041 64.5975 46.2235 64.271C45.8498 63.9445 45.5557 63.5364 45.3412 63.0467C45.1336 62.5501 45.0298 61.9651 45.0298 61.2917C45.0298 60.6047 45.137 60.0062 45.3515 59.496C45.5661 58.979 45.8636 58.5505 46.2442 58.2104C46.6248 57.8703 47.0642 57.6186 47.5625 57.4554C48.0677 57.2853 48.604 57.2003 49.1714 57.2003C49.6627 57.2003 50.0814 57.2513 50.4274 57.3534C50.7734 57.4554 51.1125 57.5982 51.4446 57.7819L51.4031 59.6388H50.7907L50.1471 57.4656L51.0087 57.7513V58.088C50.7526 57.9111 50.5035 57.7853 50.2613 57.7105C50.0191 57.6288 49.7527 57.588 49.462 57.588C48.9776 57.588 48.5382 57.7173 48.1438 57.9757C47.7563 58.2274 47.4483 58.6219 47.2199 59.1593C46.9916 59.6967 46.8774 60.3837 46.8774 61.2203C46.8774 62.057 46.9916 62.744 47.2199 63.2813C47.4552 63.8119 47.7701 64.203 48.1645 64.4547C48.559 64.7064 49.0053 64.8322 49.5036 64.8322C49.7873 64.8322 50.0502 64.7914 50.2924 64.7098C50.5346 64.6213 50.7942 64.4785 51.071 64.2812V64.6587L50.2302 64.9444L50.8634 62.7916H51.4758L51.5173 64.6281C51.199 64.8118 50.8495 64.958 50.4689 65.0669C50.0883 65.1757 49.6523 65.2301 49.161 65.2301Z" fill="#F2F2F2"/>
<path d="M55.9929 65.2301C55.5085 65.2301 55.0448 65.1451 54.602 64.975C54.1591 64.805 53.7646 64.5533 53.4186 64.22C53.0726 63.8799 52.7993 63.4616 52.5986 62.965C52.4048 62.4617 52.308 61.8767 52.308 61.2101C52.308 60.5503 52.4048 59.9721 52.5986 59.4756C52.7993 58.9722 53.0726 58.5539 53.4186 58.2206C53.7646 57.8805 54.1591 57.6254 54.602 57.4554C55.0448 57.2853 55.5085 57.2003 55.9929 57.2003C56.4842 57.2003 56.9479 57.2853 57.3838 57.4554C57.8267 57.6254 58.2177 57.8805 58.5568 58.2206C58.9028 58.5539 59.1726 58.9722 59.3664 59.4756C59.5671 59.9721 59.6674 60.5503 59.6674 61.2101C59.6674 61.8699 59.5671 62.4515 59.3664 62.9548C59.1726 63.4582 58.9028 63.8799 58.5568 64.22C58.2177 64.5533 57.8267 64.805 57.3838 64.975C56.9479 65.1451 56.4842 65.2301 55.9929 65.2301ZM55.9929 64.8424C56.3112 64.8424 56.5846 64.754 56.8129 64.5771C57.0413 64.3935 57.2281 64.1384 57.3734 63.8119C57.5257 63.4854 57.6364 63.1011 57.7056 62.6589C57.7817 62.2168 57.8198 61.7339 57.8198 61.2101C57.8198 60.6864 57.7817 60.2068 57.7056 59.7715C57.6364 59.3294 57.5257 58.945 57.3734 58.6185C57.2281 58.292 57.0413 58.0404 56.8129 57.8635C56.5846 57.6799 56.3112 57.588 55.9929 57.588C55.6746 57.588 55.3978 57.6799 55.1625 57.8635C54.9341 58.0404 54.7438 58.292 54.5916 58.6185C54.4463 58.945 54.3355 59.3294 54.2594 59.7715C54.1902 60.2068 54.1556 60.6864 54.1556 61.2101C54.1556 61.7339 54.1902 62.2168 54.2594 62.6589C54.3355 63.1011 54.4463 63.4854 54.5916 63.8119C54.7438 64.1384 54.9341 64.3935 55.1625 64.5771C55.3978 64.754 55.6746 64.8424 55.9929 64.8424Z" fill="#F2F2F2"/>
<path d="M60.2938 65.0261V64.6791L61.3837 64.5159H61.7055L63.1691 64.6791V65.0261H60.2938ZM61.311 65.0261V57.7003H61.7055L61.8508 62.6794V65.0261H61.311ZM65.2659 57.7513V57.4044H68.1515V57.7513L67.0616 57.9043H66.7502L65.2659 57.7513ZM66.2104 65.0465L61.5809 58.4757L61.5498 58.4349L61.145 57.8329L60.3561 57.7513V57.4044H62.9096L66.9163 63.0977L66.7087 63.1691L66.6672 60.149V57.4044H67.1239V65.0465H66.2104Z" fill="#F2F2F2"/>
<path d="M71.3528 65.2301C70.9307 65.2301 70.4982 65.1757 70.0553 65.0669C69.6193 64.9648 69.2456 64.8152 68.9342 64.6179L69.0069 62.863H69.6089L70.2421 64.924L69.5155 64.6281L69.3702 64.22C69.7162 64.4513 70.0172 64.6043 70.2733 64.6791C70.5362 64.754 70.8372 64.7914 71.1763 64.7914C71.6884 64.7914 72.0794 64.6791 72.3493 64.4547C72.6261 64.2234 72.7645 63.9105 72.7645 63.516C72.7645 63.2847 72.7264 63.0875 72.6503 62.9242C72.5811 62.761 72.4635 62.6147 72.2974 62.4855C72.1382 62.3563 71.9202 62.2304 71.6434 62.108L71.1452 61.8937C70.4532 61.5808 69.9238 61.2339 69.557 60.853C69.1972 60.4721 69.0173 59.9755 69.0173 59.3634C69.0173 58.9008 69.1349 58.5097 69.3702 58.19C69.6124 57.8703 69.9446 57.6254 70.3667 57.4554C70.7957 57.2853 71.2905 57.2003 71.851 57.2003C72.2593 57.2003 72.6434 57.2513 73.0032 57.3534C73.3631 57.4554 73.6814 57.5982 73.9582 57.7819L73.8751 59.4552H73.2731L72.6711 57.4962L73.4599 57.8125L73.5637 58.2614C73.2593 58.0234 73.0032 57.8601 72.7956 57.7717C72.5949 57.6765 72.3527 57.6288 72.069 57.6288C71.6192 57.6288 71.2559 57.7377 70.9791 57.9553C70.7023 58.1662 70.5639 58.4621 70.5639 58.843C70.5639 59.1967 70.6608 59.479 70.8545 59.6899C71.0483 59.9007 71.3286 60.0878 71.6953 60.251L72.2351 60.4959C72.7541 60.7204 73.1693 60.9482 73.4807 61.1795C73.7921 61.4108 74.017 61.6658 74.1554 61.9447C74.2938 62.2236 74.363 62.5569 74.363 62.9446C74.363 63.3936 74.2454 63.7915 74.0101 64.1384C73.7817 64.4785 73.4426 64.7472 72.9928 64.9444C72.55 65.1349 72.0033 65.2301 71.3528 65.2301Z" fill="#F2F2F2"/>
<path d="M78.8762 65.2301C78.2811 65.2301 77.7552 65.1281 77.2985 64.924C76.8417 64.72 76.4854 64.3833 76.2293 63.9139C75.9733 63.4378 75.8453 62.7984 75.8453 61.9957V60.8836C75.8453 60.3122 75.8418 59.7341 75.8349 59.1491C75.8349 58.5641 75.8245 57.9826 75.8037 57.4044H77.6306C77.6237 57.9826 77.6168 58.5607 77.6099 59.1389C77.6099 59.7171 77.6099 60.2986 77.6099 60.8836V61.8427C77.6099 62.4617 77.6791 62.9582 77.8175 63.3323C77.9559 63.7065 78.16 63.9785 78.4299 64.1486C78.6998 64.3118 79.0319 64.3935 79.4264 64.3935C80.0284 64.3935 80.4955 64.1928 80.8277 63.7915C81.1598 63.3902 81.319 62.727 81.3052 61.8019L81.2636 57.4044H81.8034L81.7619 61.8223C81.748 62.9922 81.4955 63.8527 81.0041 64.4037C80.5128 64.9546 79.8035 65.2301 78.8762 65.2301ZM74.9214 57.7513V57.4044H78.6167V57.7513L76.9144 57.9043H76.603L74.9214 57.7513ZM80.0803 57.7513V57.4044H82.8726V57.7513L81.6996 57.9145H81.3674L80.0803 57.7513Z" fill="#F2F2F2"/>
<path d="M83.3767 65.0261L83.3871 64.6791L85.0479 64.5159H85.2244L85.214 65.0261H83.3767ZM84.3005 65.0261C84.3144 64.4411 84.3213 63.8629 84.3213 63.2915C84.3282 62.7134 84.3317 62.1896 84.3317 61.7203V60.9958C84.3317 60.3905 84.3282 59.7885 84.3213 59.1899C84.3213 58.5913 84.3144 57.9962 84.3005 57.4044H86.1274C86.1136 57.9894 86.1032 58.5777 86.0963 59.1695C86.0963 59.7545 86.0963 60.3088 86.0963 60.8326V61.4958C86.0963 62.0604 86.0963 62.6419 86.0963 63.2405C86.1032 63.8323 86.1136 64.4275 86.1274 65.0261H84.3005ZM85.214 65.0261L85.2244 64.6281H89.0546L88.1723 65.0056L88.7847 62.7406H89.3556L89.3764 65.0261H85.214ZM83.3767 57.7513V57.4044H87.1343V57.7513L85.4424 57.9043H85.0479L83.3767 57.7513Z" fill="#F2F2F2"/>
<path d="M90.6252 65.0261V64.6791L92.3172 64.5159H92.7947L94.5385 64.6791V65.0261H90.6252ZM91.6633 65.0261C91.6771 64.4411 91.684 63.8493 91.684 63.2507C91.6909 62.6521 91.6944 62.0502 91.6944 61.4448V60.9958C91.6944 60.3905 91.6909 59.7919 91.684 59.2001C91.684 58.6015 91.6771 58.003 91.6633 57.4044H93.4901C93.4763 57.9894 93.4659 58.5845 93.459 59.1899C93.459 59.7885 93.459 60.3905 93.459 60.9958V61.4346C93.459 62.0332 93.459 62.6317 93.459 63.2303C93.4659 63.8289 93.4763 64.4275 93.4901 65.0261H91.6633ZM89.1098 59.6082L89.1513 57.4044H96.0021L96.0436 59.6082H95.4416L94.798 57.4044L95.6284 57.8023H89.5146L90.3554 57.4044L89.7222 59.6082H89.1098Z" fill="#F2F2F2"/>
<path d="M96.7066 65.0261V64.6791L98.3778 64.5159H98.6996L100.381 64.6791V65.0261H96.7066ZM97.6304 65.0261C97.6512 64.4411 97.6616 63.8493 97.6616 63.2507C97.6685 62.6521 97.6719 62.0502 97.6719 61.4448V60.9958C97.6719 60.3905 97.6685 59.7919 97.6616 59.2001C97.6616 58.6015 97.6512 58.003 97.6304 57.4044H99.4677C99.4538 57.9894 99.4435 58.5845 99.4365 59.1899C99.4365 59.7885 99.4365 60.3905 99.4365 60.9958V61.4346C99.4365 62.0332 99.4365 62.6317 99.4365 63.2303C99.4435 63.8289 99.4538 64.4275 99.4677 65.0261H97.6304ZM96.7066 57.7513V57.4044H100.381V57.7513L98.6996 57.9043H98.3778L96.7066 57.7513Z" fill="#F2F2F2"/>
<path d="M101.175 65.0261V64.6791L102.265 64.5159H102.587L104.051 64.6791V65.0261H101.175ZM102.193 65.0261V57.7003H102.587L102.732 62.6794V65.0261H102.193ZM106.148 57.7513V57.4044H109.033V57.7513L107.943 57.9043H107.632L106.148 57.7513ZM107.092 65.0465L102.463 58.4757L102.431 58.4349L102.027 57.8329L101.238 57.7513V57.4044H103.791L107.798 63.0977L107.59 63.1691L107.549 60.149V57.4044H108.006V65.0465H107.092Z" fill="#F2F2F2"/>
<path d="M113.763 65.2301C112.946 65.2301 112.226 65.0703 111.604 64.7506C110.981 64.4241 110.496 63.9615 110.15 63.363C109.804 62.7576 109.631 62.0332 109.631 61.1897C109.631 60.3667 109.808 59.6593 110.161 59.0675C110.514 58.4689 111.005 58.0098 111.635 57.6901C112.271 57.3636 113.005 57.2003 113.835 57.2003C114.285 57.2003 114.693 57.2479 115.06 57.3432C115.427 57.4384 115.77 57.5744 116.088 57.7513L116.046 59.6184H115.403L114.78 57.4452L115.642 57.7615V58.19C115.358 57.9723 115.098 57.8193 114.863 57.7309C114.628 57.6356 114.361 57.588 114.064 57.588C113.579 57.588 113.14 57.7207 112.745 57.986C112.358 58.2444 112.05 58.6423 111.822 59.1797C111.593 59.7171 111.479 60.3939 111.479 61.2101C111.479 61.9651 111.59 62.6147 111.811 63.1589C112.033 63.7031 112.33 64.1214 112.704 64.4139C113.078 64.6996 113.496 64.8424 113.96 64.8424C114.181 64.8424 114.396 64.822 114.604 64.7812C114.811 64.7404 115.015 64.6859 115.216 64.6179L114.635 64.9342V64.0057C114.635 63.5432 114.631 63.0909 114.624 62.6487C114.617 62.2066 114.607 61.7509 114.593 61.2815H116.337C116.33 61.7237 116.32 62.1726 116.306 62.6283C116.299 63.0773 116.295 63.5534 116.295 64.0568V64.5567C115.894 64.788 115.493 64.958 115.091 65.0669C114.697 65.1757 114.254 65.2301 113.763 65.2301ZM113.503 61.6284V61.2815H116.97V61.6284L115.662 61.8019H114.946L113.503 61.6284Z" fill="#F2F2F2"/>
</svg>
